The Siege (1998) [BDRip720p][Nautilus-BT]
Join www.nautilus-bt.org

[img]http://img641.imageshack.us/img641/5040/siegel.jpg[/img]

Link IMDb : http://www.imdb.com/title/tt0133952/

The secret US abduction of a suspected terrorist leads to a wave of terrorist attacks in New York that lead to the declaration of martial law.


Titolo italiano : Attacco al potere
Titolo originale : The Siege
Anno : 1998
Genere : thriller - azione
Paese : USA
Sceneggiatura : Menno Meyjes, Lawrence Wright, Edward Zwick
Regia : Edward Zwick
Fotografia : Roger Deakins
Soggetto : Lawrence Wright


Lingue : Italiano - Inglese
Sottotitoli : Italiano
Sottotitoli per non udenti : Inglese
Cartelli : Italiano
Capitoli : si



[img]http://img813.imageshack.us/img813/540/thesiegequantanal.png[/img]

General
Complete name                    : Attacco al potere - The Siege (1998) [BDRip720p Ita-Eng] by Pitt@Sk8.mkv
Format                           : Matroska
File size                        : 4.38 GiB
Duration                         : 1h 56mn
Overall bit rate                 : 5 396 Kbps
Encoded date                     : UTC 2011-01-12 16:31:52
Writing application              : mkvmerge v4.0.0 ('The Stars were mine') built on Jun  6 2010 16:18:42
Writing library                  : libebml v1.0.0 + libmatroska v1.0.0

Video
ID                               : 1
Format                           : AVC
Format/Info                      : Advanced Video Codec
Format profile                   : High@L4.1
Format settings, CABAC           : Yes
Format settings, ReFrames        : 3 frames
Muxing mode                      : Container profile=Unknown@4.1
Codec ID                         : V_MPEG4/ISO/AVC
Duration                         : 1h 56mn
Bit rate mode                    : Variable
Bit rate                         : 4 296 Kbps
Maximum bit rate                 : 45.0 Mbps
Width                            : 1 280 pixels
Height                           : 542 pixels
Display aspect ratio             : 16:9
Frame rate                       : 23.976 fps
Color space                      : YUV
Chroma subsampling               : 4:2:0
Bit depth                        : 8 bits
Scan type                        : Progressive
Bits/(Pixel*Frame)               : 0.258
Stream size                      : 3.41 GiB (78%)
Title                            : BDRip720p by Pitt@Sk8
Writing library                  : x264 core 104 r1713 c276662
Encoding settings                : cabac=1 / ref=3 / deblock=1:0:0 / analyse=0x3:0x133 / me=hex / subme=7 / psy=1 / psy_rd=1.00:0.00 / mixed_ref=1 / me_range=16 / chroma_me=1 / trellis=1 / 8x8dct=1 / cqm=0 / deadzone=21,11 / fast_pskip=1 / chroma_qp_offset=-2 / threads=6 / sliced_threads=0 / slices=4 / nr=0 / decimate=1 / interlaced=0 / constrained_intra=0 / bframes=3 / b_pyramid=1 / b_adapt=1 / b_bias=0 / direct=1 / weightb=1 / open_gop=2 / weightp=2 / keyint=240 / keyint_min=23 / scenecut=40 / intra_refresh=0 / rc_lookahead=40 / rc=2pass / mbtree=1 / bitrate=4296 / ratetol=1.0 / qcomp=0.60 / qpmin=10 / qpmax=51 / qpstep=4 / cplxblur=20.0 / qblur=0.5 / vbv_maxrate=45000 / vbv_bufsize=45000 / ip_ratio=1.40 / aq=1:1.00 / nal_hrd=vbr

Audio #1
ID                               : 2
Format                           : AC-3
Format/Info                      : Audio Coding 3
Mode extension                   : CM (complete main)
Codec ID                         : A_AC3
Duration                         : 1h 56mn
Bit rate mode                    : Constant
Bit rate                         : 640 Kbps
Channel(s)                       : 6 channels
Channel positions                : Front: L C R, Side: L R, LFE
Sampling rate                    : 48.0 KHz
Bit depth                        : 16 bits
Stream size                      : 531 MiB (12%)
Title                            : Italiano AC3 5.1 640 kbps - Pitt@Sk8
Language                         : Italian

Audio #2
ID                               : 3
Format                           : AC-3
Format/Info                      : Audio Coding 3
Mode extension                   : CM (complete main)
Codec ID                         : A_AC3
Duration                         : 1h 56mn
Bit rate mode                    : Constant
Bit rate                         : 448 Kbps
Channel(s)                       : 6 channels
Channel positions                : Front: L C R, Side: L R, LFE
Sampling rate                    : 48.0 KHz
Bit depth                        : 16 bits
Stream size                      : 372 MiB (8%)
Title                            : English AC3 5.1 448 kbps - Pitt@Sk8
Language                         : English

Text #1
ID                               : 4
Format                           : VobSub
Codec ID                         : S_VOBSUB
Codec ID/Info                    : The same subtitle format used on DVDs
Title                            : Cartelli - Italiano
Language                         : Italian

Text #2
ID                               : 5
Format                           : VobSub
Codec ID                         : S_VOBSUB
Codec ID/Info                    : The same subtitle format used on DVDs
Title                            : Sottotitoli - Italiano
Language                         : Italian

Text #3
ID                               : 6
Format                           : VobSub
Codec ID                         : S_VOBSUB
Codec ID/Info                    : The same subtitle format used on DVDs
Title                            : Subtitle English [deaf]
Language                         : English

Menu
00:00:00.000                     : en:The Siege -01- Pitt@Sk8
00:04:32.105                     : en:The Siege -02- Pitt@Sk8
00:07:38.750                     : en:The Siege -03- Pitt@Sk8
00:10:06.606                     : en:The Siege -04- Pitt@Sk8
00:15:15.123                     : en:The Siege -05- Pitt@Sk8
00:18:36.866                     : en:The Siege -06- Pitt@Sk8
00:26:13.530                     : en:The Siege -07- Pitt@Sk8
00:31:30.180                     : en:The Siege -08- Pitt@Sk8
00:35:22.495                     : en:The Siege -09- Pitt@Sk8
00:43:58.094                     : en:The Siege -10- Pitt@Sk8
00:46:22.488                     : en:The Siege -11- Pitt@Sk8
00:49:59.872                     : en:The Siege -12- Pitt@Sk8
00:53:43.720                     : en:The Siege -13- Pitt@Sk8
00:55:24.488                     : en:The Siege -14- Pitt@Sk8
00:58:01.436                     : en:The Siege -15- Pitt@Sk8
01:00:46.434                     : en:The Siege -16- Pitt@Sk8
01:04:33.870                     : en:The Siege -17- Pitt@Sk8
01:10:24.971                     : en:The Siege -18- Pitt@Sk8
01:12:42.858                     : en:The Siege -19- Pitt@Sk8
01:15:55.176                     : en:The Siege -20- Pitt@Sk8
01:19:14.667                     : en:The Siege -21- Pitt@Sk8
01:21:40.896                     : en:The Siege -22- Pitt@Sk8
01:24:37.990                     : en:The Siege -23- Pitt@Sk8
01:29:39.666                     : en:The Siege -24- Pitt@Sk8
01:32:02.058                     : en:The Siege -25- Pitt@Sk8
01:33:45.453                     : en:The Siege -26- Pitt@Sk8
01:39:29.046                     : en:The Siege -27- Pitt@Sk8
01:43:07.807                     : en:The Siege -28- Pitt@Sk8
01:44:30.389                     : en:The Siege -29- Pitt@Sk8
01:49:23.098                     : en:The Siege -30- Pitt@Sk8

[img]http://img257.imageshack.us/img257/9029/attaccoalpoterethesiege.jpg[/img]

[img]http://img213.imageshack.us/img213/9029/attaccoalpoterethesiege.jpg[/img]

[img]http://img407.imageshack.us/img407/9029/attaccoalpoterethesiege.jpg[/img]

[img]http://img688.imageshack.us/img688/9029/attaccoalpoterethesiege.jpg[/img]

[img]http://img691.imageshack.us/img691/9029/attaccoalpoterethesiege.jpg[/img]

[img]http://img842.imageshack.us/img842/9029/attaccoalpoterethesiege.jpg[/img]

Join www.nautilus-bt.org
